<svg width="24" height="24" viewBox="0 0 24 24" fill="none" xmlns="http://www.w3.org/2000/svg">
<path d="M24 12C24 18.6274 18.6274 24 12 24C5.37258 24 0 18.6274 0 12C0 5.37258 5.37258 0 12 0C18.6274 0 24 5.37258 24 12Z" fill="white"/>
<path fill-rule="evenodd" clip-rule="evenodd" d="M14.9696 4.28704C14.9696 5.01845 14.6465 5.74986 14.1906 6.27759C13.706 6.86091 12.8701 7.29604 12.2051 7.29613C12.1291 7.29613 12.053 7.28681 12.0056 7.27758C11.9961 7.24055 11.9771 7.12939 11.9771 7.01832C11.9771 6.27759 12.3666 5.54618 12.7846 5.08326C13.3166 4.48148 14.2001 4.02779 14.9411 4C14.9601 4.08337 14.9696 4.18521 14.9696 4.28704ZM17.583 8.89431C17.6014 8.88251 17.6141 8.8744 17.62 8.86993C16.6321 7.49048 15.131 7.45337 14.713 7.45328C14.0742 7.45328 13.5025 7.67415 13.0218 7.85983C12.6733 7.99449 12.3726 8.11064 12.129 8.11064C11.8603 8.11064 11.5526 7.98945 11.2092 7.8542C10.7757 7.68345 10.2853 7.4903 9.74458 7.4903C7.92069 7.4903 6.06818 8.96244 6.06818 11.74C6.06818 13.4713 6.75216 15.2952 7.59765 16.471C8.32908 17.4709 8.96559 18.2857 9.87759 18.2857C10.3101 18.2857 10.6272 18.1545 10.9607 18.0166C11.3304 17.8636 11.7202 17.7024 12.3096 17.7024C12.9047 17.7024 13.2605 17.8538 13.6036 17.9998C13.9233 18.1358 14.232 18.2672 14.713 18.2672C15.7105 18.2672 16.366 17.3877 16.993 16.5081C17.696 15.5082 17.9905 14.5267 18 14.4805C17.943 14.462 16.0335 13.7121 16.0335 11.5919C16.0335 9.8854 17.3343 9.05341 17.583 8.89431Z" fill="#11183C"/>
</svg>
