<svg width="86" height="36" viewBox="0 0 86 36" fill="none" xmlns="http://www.w3.org/2000/svg">
<path d="M0.472656 32L1.41318 29.2755C2.35371 26.5511 4.58746 17.8362 6.46851 16.8827C8.34957 15.9292 10.2306 15.6021 12.1117 16.8827C13.9927 18.1633 15.8738 23.9979 17.7548 20.2558C19.6359 16.5137 21.1642 16.5251 23.0453 15.7123C24.9263 14.8995 27.1601 17.1314 29.0411 17.9002C30.9222 18.6691 32.8032 15.3289 34.6843 15.7123C36.5653 16.0956 39.1518 15.9387 41.0328 16.8827C42.9139 17.8267 44.795 19.5077 46.676 15.7123C48.5571 11.9168 49.7327 10.8087 51.6138 11.2978C53.4948 11.7869 55.3759 16.847 57.2569 19.4924C59.138 22.1379 61.019 21.0787 62.9001 17.9002C64.7811 14.7218 66.6622 6.81436 68.5433 5.77707C70.4243 4.73978 72.3054 7.96286 74.1864 9.42536C76.0675 10.8879 77.9485 10.5898 79.8296 9.39211C81.7106 8.19446 83.5916 6.09723 84.5321 5.04861L85.4727 4" stroke="#2F66F6"/>
</svg>
