<svg width="24" height="24" viewBox="0 0 24 24" fill="none" xmlns="http://www.w3.org/2000/svg">
<path d="M8.23096 12.5385L15.7694 12.5385" stroke="#696F8C" stroke-width="1.72308" stroke-linecap="round"/>
<path d="M8.23096 15.7692L12.5386 15.7692" stroke="#696F8C" stroke-width="1.72308" stroke-linecap="round"/>
<path d="M5 5.43078C5 4.52608 5 4.07373 5.17607 3.72818C5.33094 3.42422 5.57806 3.1771 5.88202 3.02223C6.22757 2.84616 6.67992 2.84616 7.58462 2.84616H12.5448C12.9399 2.84616 13.1375 2.84616 13.3234 2.89079C13.4882 2.93037 13.6458 2.99563 13.7903 3.0842C13.9533 3.1841 14.093 3.32379 14.3724 3.60318L18.243 7.47376C18.5224 7.75314 18.6621 7.89283 18.762 8.05585C18.8505 8.20039 18.9158 8.35796 18.9554 8.52279C19 8.7087 19 8.90625 19 9.30136V18.5692C19 19.4739 19 19.9263 18.8239 20.2718C18.6691 20.5758 18.4219 20.8229 18.118 20.9778C17.7724 21.1539 17.3201 21.1539 16.4154 21.1539H7.58462C6.67992 21.1539 6.22757 21.1539 5.88202 20.9778C5.57806 20.8229 5.33094 20.5758 5.17607 20.2718C5 19.9263 5 19.4739 5 18.5692V5.43078Z" stroke="#696F8C" stroke-width="1.72308"/>
<path d="M12.5386 2.84616V6.72308C12.5386 7.62778 12.5386 8.08013 12.7146 8.42568C12.8695 8.72964 13.1166 8.97676 13.4206 9.13163C13.7661 9.3077 14.2185 9.3077 15.1232 9.3077H19.0001" stroke="#696F8C" stroke-width="1.72308"/>
</svg>
