<svg width="24" height="24" viewBox="0 0 24 24" fill="none" xmlns="http://www.w3.org/2000/svg">
<path d="M24 12C24 18.6274 18.6274 24 12 24C5.37258 24 0 18.6274 0 12C0 5.37258 5.37258 0 12 0C18.6274 0 24 5.37258 24 12Z" fill="white"/>
<path d="M16.6707 15.4684L17.2027 11.9995H13.8744V9.74844C13.8744 8.79941 14.3393 7.87437 15.8301 7.87437H17.3434V4.92113C17.3434 4.92113 15.97 4.68675 14.657 4.68675C11.9158 4.68675 10.1242 6.34806 10.1242 9.35568V11.9995H7.07713V15.4684H10.1242V23.8542C10.7352 23.9501 11.3621 24 12 24C12.6379 24 13.2634 23.9501 13.8744 23.8542V15.4684H16.6707Z" fill="#1877F2"/>
</svg>
