<svg width="24" height="24" viewBox="0 0 24 24" fill="none" xmlns="http://www.w3.org/2000/svg">
<path d="M21 4.13876C21 3.50984 20.4963 3 19.875 3H4.125C3.50368 3 3 3.50984 3 4.13876V5.94459C3 6.24661 3.11853 6.53625 3.3295 6.74981L8.29549 11.7765C8.50647 11.9901 8.62499 12.2797 8.62499 12.5818V20.4302C8.62499 20.8188 9.00113 21.0932 9.36537 20.9703L14.9904 19.0724C15.2201 18.9949 15.375 18.7773 15.375 18.5323V12.5818C15.375 12.2798 15.4935 11.9901 15.7045 11.7765L20.6705 6.74981C20.8815 6.53625 21 6.24661 21 5.94459V4.13876Z" stroke="#696F8C" stroke-width="1.6"/>
</svg>
