<svg width="24" height="24" viewBox="0 0 24 24" fill="none" xmlns="http://www.w3.org/2000/svg">
<path d="M24 12C24 18.6274 18.6274 24 12 24C5.37258 24 0 18.6274 0 12C0 5.37258 5.37258 0 12 0C18.6274 0 24 5.37258 24 12Z" fill="white"/>
<path d="M19.5 12.18C19.5 11.6533 19.4538 11.1533 19.3746 10.6667H11.9183V13.6733H16.1875C15.9962 14.66 15.4353 15.4933 14.6039 16.06V18.06H17.1509C18.6422 16.6667 19.5 14.6133 19.5 12.18Z" fill="#4285F4"/>
<path d="M11.9183 20C14.0562 20 15.8444 19.28 17.1509 18.06L14.6039 16.06C13.8912 16.54 12.9872 16.8333 11.9183 16.8333C9.85292 16.8333 8.1043 15.4267 7.47744 13.5267H4.85121V15.5867C6.15113 18.2 8.82354 20 11.9183 20Z" fill="#34A853"/>
<path d="M7.47744 13.5267C7.31247 13.0467 7.22669 12.5333 7.22669 12C7.22669 11.4667 7.31907 10.9533 7.47744 10.4733V8.41333H4.85121C4.31013 9.49333 4 10.7067 4 12C4 13.2933 4.31013 14.5067 4.85121 15.5867L7.47744 13.5267Z" fill="#FBBC05"/>
<path d="M11.9183 7.16667C13.0862 7.16667 14.1288 7.57333 14.9536 8.36667L17.2103 6.08667C15.8444 4.79333 14.0562 4 11.9183 4C8.82354 4 6.15113 5.8 4.85121 8.41333L7.47744 10.4733C8.1043 8.57333 9.85292 7.16667 11.9183 7.16667Z" fill="#EA4335"/>
</svg>
