<svg width="24" height="24" viewBox="0 0 24 24" fill="none" xmlns="http://www.w3.org/2000/svg">
<path fill-rule="evenodd" clip-rule="evenodd" d="M5.51025 16.3276C5.83217 16.8105 6.20855 17.2583 6.63392 17.6615C7.72805 18.6985 9.09977 19.3962 10.5822 19.6703C12.0645 19.9443 13.5948 19.7828 14.9874 19.2055C16.3799 18.6281 17.5752 17.6597 18.4288 16.4174C19.2825 15.1749 19.7575 13.7114 19.797 12.2045C19.8364 10.6976 19.4389 9.21157 18.6515 7.92615C17.8641 6.64065 16.7209 5.61078 15.3605 4.96131C14.4598 4.53136 13.4893 4.28047 12.5025 4.21686L12.9465 5.87321C13.5412 5.9652 14.1224 6.14373 14.671 6.40565C15.7524 6.92189 16.6613 7.74028 17.2872 8.76209C17.913 9.78375 18.2297 10.9648 18.1984 12.1625C18.167 13.3602 17.7889 14.5236 17.1105 15.5111C16.4319 16.4987 15.4811 17.269 14.3742 17.7279C13.2674 18.1867 12.0513 18.3148 10.8732 18.0971C9.69499 17.8792 8.60513 17.3245 7.73548 16.5004C7.53159 16.3071 7.34184 16.101 7.16719 15.8836L5.51025 16.3276Z" fill="#696F8C"/>
<path d="M5.91239 4.06647C6.68924 3.47037 7.54796 2.99272 8.46042 2.64739C8.87978 2.48868 9.08946 2.40932 9.28694 2.51053C9.48442 2.61174 9.54649 2.84338 9.67063 3.30667L11.7412 11.0341C11.8632 11.4894 11.9242 11.7171 11.8206 11.8964C11.7171 12.0758 11.4894 12.1368 11.0341 12.2588L3.30667 14.3294C2.84338 14.4535 2.61174 14.5156 2.42535 14.3952C2.23896 14.2747 2.20284 14.0535 2.13061 13.6109C1.97344 12.6481 1.95774 11.6656 2.08555 10.6947C2.25696 9.39275 2.68314 8.13728 3.33975 7C3.99636 5.86272 4.87054 4.8659 5.91239 4.06647Z" stroke="#696F8C" stroke-width="1.6"/>
</svg>
