<svg width="24" height="24" viewBox="0 0 24 24" fill="none" xmlns="http://www.w3.org/2000/svg">
<path d="M15 4C16.6051 4 18.4077 4 18.9842 4.35689C19.2337 4.51139 19.448 4.70992 19.6148 4.94115C20 5.47527 20 6.2188 20 7.70588V17.7647C20 19.7612 20 20.7595 19.3305 21.3798C18.6611 22 17.5836 22 15.4286 22H8.57143C6.41644 22 5.33894 22 4.66947 21.3798C4 20.7595 4 19.7612 4 17.7647V7.70588C4 6.2188 4 5.47527 4.38521 4.94115C4.55197 4.70992 4.76626 4.51139 5.01584 4.35689C5.59235 4 7.3949 4 9 4" stroke="#696F8C" stroke-width="1.6"/>
<path d="M9 4C9 2.89543 9.89543 2 11 2H13C14.1046 2 15 2.89543 15 4C15 5.10457 14.1046 6 13 6H11C9.89543 6 9 5.10457 9 4Z" stroke="#696F8C" stroke-width="1.6"/>
<path d="M9 12L15 12" stroke="#696F8C" stroke-width="1.6" stroke-linecap="round"/>
<path d="M9 15L13 15" stroke="#696F8C" stroke-width="1.6" stroke-linecap="round"/>
</svg>
