<svg width="24" height="24" viewBox="0 0 24 24" fill="none" xmlns="http://www.w3.org/2000/svg">
<path d="M18.6667 19.451C18.2734 18.2697 17.4069 17.2259 16.2016 16.4814C14.9962 15.7369 13.5193 15.3333 12 15.3333C10.4807 15.3333 9.00379 15.7369 7.79843 16.4814C6.59306 17.2259 5.72657 18.2697 5.33333 19.451M15.3333 9.77778C15.3333 11.6187 13.8409 13.1111 12 13.1111C10.1591 13.1111 8.66667 11.6187 8.66667 9.77778C8.66667 7.93683 10.1591 6.44444 12 6.44444C13.8409 6.44444 15.3333 7.93683 15.3333 9.77778ZM22 12C22 17.5228 17.5228 22 12 22C6.47715 22 2 17.5228 2 12C2 6.47715 6.47715 2 12 2C17.5228 2 22 6.47715 22 12Z" stroke="#696F8C" stroke-width="1.6" stroke-linecap="round"/>
</svg>
