<svg width="24" height="24" viewBox="0 0 24 24" fill="none" xmlns="http://www.w3.org/2000/svg">
<path d="M14.1361 3.36144L14.9322 3.28184L14.1361 3.36144ZM13.9838 2.54161L13.2728 2.90832V2.90832L13.9838 2.54161ZM14.4311 4.81793L15.0671 4.33271L15.0671 4.33271L14.4311 4.81793ZM15.3595 5.20248L15.2528 4.40962H15.2528L15.3595 5.20248ZM16.5979 4.38113L17.1045 5.0003L17.1045 5.0003L16.5979 4.38113ZM17.2853 3.90918L17.5288 4.67124L17.2853 3.90918ZM17.9872 3.94419L18.3053 3.21014L18.3053 3.21014L17.9872 3.94419ZM18.6243 4.4822L18.0586 5.04788L18.0586 5.04788L18.6243 4.4822ZM19.5178 5.37567L20.0834 4.80998V4.80998L19.5178 5.37567ZM20.0558 6.01275L20.7898 5.69469L20.7898 5.69468L20.0558 6.01275ZM20.0908 6.71464L20.8528 6.95809L20.8528 6.95808L20.0908 6.71464ZM19.6188 7.4021L18.9997 6.89551V6.89551L19.6188 7.4021ZM18.7975 8.64056L18.0046 8.53391V8.53391L18.7975 8.64056ZM19.182 9.56893L18.6968 10.205V10.205L19.182 9.56893ZM20.6385 9.86385L20.7181 9.06782L20.6385 9.86385ZM21.4584 10.0162L21.8251 9.30525L21.8251 9.30525L21.4584 10.0162ZM21.9299 10.5373L22.6739 10.2431V10.2431L21.9299 10.5373ZM21.93 13.4626L21.186 13.1685L21.186 13.1685L21.93 13.4626ZM21.4583 13.9838L21.825 14.6948H21.825L21.4583 13.9838ZM20.6386 14.1361L20.559 13.3401L20.533 13.3427L20.5071 13.347L20.6386 14.1361ZM20.6386 14.1361L20.7182 14.9322L20.7443 14.9296L20.7701 14.9253L20.6386 14.1361ZM19.1825 14.4309L18.6974 13.7948L18.6974 13.7948L19.1825 14.4309ZM18.7979 15.3596L18.005 15.4664V15.4664L18.7979 15.3596ZM19.619 16.5976L18.9998 17.1042V17.1042L19.619 16.5976ZM20.0908 17.2848L19.3288 17.5283V17.5283L20.0908 17.2848ZM20.0558 17.9869L19.3218 17.6688L19.3218 17.6688L20.0558 17.9869ZM19.5179 18.6238L20.0836 19.1895L19.5179 18.6238ZM18.6243 19.5174L18.0586 18.9517L18.0586 18.9517L18.6243 19.5174ZM17.9873 20.0554L18.3053 20.7894L18.3053 20.7894L17.9873 20.0554ZM17.2854 20.0904L17.0419 20.8524H17.0419L17.2854 20.0904ZM16.5979 19.6184L17.1045 18.9992L17.0977 18.9937L16.5979 19.6184ZM16.5979 19.6184L16.0913 20.2376L16.0981 20.2431L16.5979 19.6184ZM15.3595 18.7971L15.4662 18.0042H15.4662L15.3595 18.7971ZM14.4311 19.1816L15.0672 19.6668L15.0672 19.6668L14.4311 19.1816ZM14.1362 20.6383L13.3401 20.5587L14.1362 20.6383ZM13.9837 21.4585L13.2728 21.0917L13.2727 21.0917L13.9837 21.4585ZM13.4628 21.9299L13.1686 21.186H13.1686L13.4628 21.9299ZM10.5373 21.9299L10.8314 21.186L10.5373 21.9299ZM10.0162 21.4584L10.7272 21.0917L10.0162 21.4584ZM9.86385 20.6385L9.06783 20.7182L9.86385 20.6385ZM9.56892 19.182L8.93288 19.6672L8.93288 19.6672L9.56892 19.182ZM8.64057 18.7975L8.53394 18.0046L8.53393 18.0046L8.64057 18.7975ZM7.40208 19.6189L6.89549 18.9997L6.88282 19.0101L6.87058 19.0209L7.40208 19.6189ZM7.40206 19.6189L7.90865 20.238L7.92132 20.2277L7.93355 20.2168L7.40206 19.6189ZM6.71458 20.0908L6.95801 20.8529H6.95801L6.71458 20.0908ZM6.01272 20.0558L5.69466 20.7899L5.69467 20.7899L6.01272 20.0558ZM5.37561 19.5178L5.94129 18.9521H5.94129L5.37561 19.5178ZM4.48217 18.6243L3.91648 19.19H3.91648L4.48217 18.6243ZM3.94414 17.9873L4.67819 17.6692H4.67819L3.94414 17.9873ZM3.90913 17.2854L4.67119 17.5288H4.67119L3.90913 17.2854ZM4.3811 16.5979L5.00027 17.1045L5.00027 17.1045L4.3811 16.5979ZM5.20247 15.3594L5.99533 15.4661L5.20247 15.3594ZM4.81792 14.4311L5.30314 13.795L5.30314 13.795L4.81792 14.4311ZM3.36143 14.1361L3.28183 14.9322H3.28183L3.36143 14.1361ZM2.54161 13.9838L2.90832 13.2728H2.90832L2.54161 13.9838ZM2.07005 13.4627L1.32608 13.7568L1.32609 13.7568L2.07005 13.4627ZM2.07008 10.5372L1.32615 10.243L1.32615 10.243L2.07008 10.5372ZM2.54152 10.0163L2.17474 9.30531L2.17474 9.30532L2.54152 10.0163ZM3.36155 9.86384V9.06384H3.32165L3.28195 9.06781L3.36155 9.86384ZM3.36156 9.86384V10.6638H3.40146L3.44116 10.6599L3.36156 9.86384ZM4.81842 9.56881L4.3331 8.93283L4.3331 8.93283L4.81842 9.56881ZM5.20287 8.64066L5.99574 8.53412V8.53412L5.20287 8.64066ZM4.38128 7.40182L5.00044 6.89523L5.00044 6.89523L4.38128 7.40182ZM3.90914 6.71405L4.67123 6.47072L4.67123 6.47072L3.90914 6.71405ZM3.94413 6.01243L3.21003 5.69447L3.21003 5.69447L3.94413 6.01243ZM4.48233 5.37509L5.04802 5.94077L5.04802 5.94077L4.48233 5.37509ZM5.37565 4.48177L4.80997 3.91608L5.37565 4.48177ZM6.01277 3.94373L5.69471 3.20967L5.69471 3.20967L6.01277 3.94373ZM6.71463 3.90872L6.95806 3.14666L6.71463 3.90872ZM7.4022 4.38076L7.90879 3.7616V3.7616L7.4022 4.38076ZM8.64044 5.20207L8.74722 4.40922V4.40922L8.64044 5.20207ZM9.56907 4.81742L8.93294 4.33229L9.56907 4.81742ZM9.86387 3.36131L10.6599 3.44091V3.44091L9.86387 3.36131ZM10.0162 2.5417L9.30515 2.17507L9.30515 2.17507L10.0162 2.5417ZM10.5374 2.07001L10.8315 2.814L10.8315 2.814L10.5374 2.07001ZM13.4627 2.07005L13.7568 1.32609L13.7568 1.32609L13.4627 2.07005ZM14.9322 3.28184C14.9115 3.07557 14.8926 2.88194 14.8654 2.71992C14.8369 2.55003 14.7917 2.36289 14.6948 2.1749L13.2728 2.90832C13.2631 2.88965 13.2725 2.89559 13.2875 2.98486C13.3038 3.08201 13.3174 3.21363 13.3401 3.44104L14.9322 3.28184ZM15.0671 4.33271C15.1005 4.37653 15.0738 4.3741 15.0373 4.17137C15.0022 3.9763 14.9746 3.7057 14.9322 3.28184L13.3401 3.44104C13.3798 3.83805 13.4137 4.1831 13.4626 4.45475C13.5101 4.71876 13.5898 5.03413 13.795 5.30314L15.0671 4.33271ZM15.2528 4.40962C15.1816 4.4192 15.1107 4.38984 15.0671 4.33271L13.795 5.30314C14.1872 5.81732 14.8252 6.08156 15.4661 5.99534L15.2528 4.40962ZM16.0913 3.76196C15.7616 4.0317 15.5507 4.20349 15.3879 4.31661C15.2188 4.43416 15.1982 4.41697 15.2528 4.40962L15.4661 5.99534C15.8014 5.95023 16.0808 5.78356 16.3011 5.63047C16.5277 5.47295 16.7957 5.25295 17.1045 5.0003L16.0913 3.76196ZM17.0419 3.14713C16.8404 3.2115 16.6761 3.3119 16.5358 3.41186C16.402 3.50719 16.2517 3.6307 16.0913 3.76197L17.1045 5.0003C17.2813 4.85558 17.384 4.77211 17.4642 4.71495C17.538 4.66243 17.5488 4.66485 17.5288 4.67124L17.0419 3.14713ZM18.3053 3.21014C17.9056 3.03697 17.4568 3.01458 17.0419 3.14713L17.5288 4.67124C17.5749 4.65651 17.6247 4.659 17.6691 4.67824L18.3053 3.21014ZM19.19 3.91651C19.0434 3.76994 18.9061 3.63208 18.7825 3.52391C18.6528 3.41049 18.4994 3.29424 18.3053 3.21014L17.6691 4.67824C17.6499 4.66989 17.6609 4.66856 17.729 4.72816C17.8031 4.79301 17.897 4.88628 18.0586 5.04788L19.19 3.91651ZM20.0834 4.80998L19.19 3.91651L18.0586 5.04788L18.9521 5.94135L20.0834 4.80998ZM20.7898 5.69468C20.7057 5.5006 20.5895 5.34715 20.4761 5.21749C20.3679 5.09384 20.23 4.95656 20.0834 4.80998L18.9521 5.94135C19.1137 6.10296 19.207 6.19682 19.2718 6.27096C19.3314 6.33909 19.3301 6.3501 19.3217 6.33082L20.7898 5.69468ZM20.8528 6.95808C20.9854 6.5432 20.963 6.09433 20.7898 5.69469L19.3217 6.33082C19.341 6.37522 19.3435 6.4251 19.3287 6.4712L20.8528 6.95808ZM20.238 7.90869C20.3693 7.74826 20.4928 7.59794 20.5881 7.46414C20.6881 7.32383 20.7885 7.15959 20.8528 6.95809L19.3287 6.47119C19.3351 6.45118 19.3375 6.462 19.285 6.53573C19.2279 6.61595 19.1444 6.71863 18.9997 6.89551L20.238 7.90869ZM19.5903 8.74721C19.583 8.80183 19.5658 8.78119 19.6833 8.61205C19.7965 8.44928 19.9682 8.23838 20.238 7.90869L18.9997 6.89551C18.747 7.20432 18.527 7.47229 18.3695 7.69895C18.2164 7.91923 18.0497 8.19857 18.0046 8.53391L19.5903 8.74721ZM19.6672 8.93288C19.6101 8.8893 19.5807 8.81842 19.5903 8.7472L18.0046 8.53391C17.9184 9.17483 18.1826 9.81273 18.6968 10.205L19.6672 8.93288ZM20.7181 9.06782C20.2943 9.02544 20.0237 8.99778 19.8286 8.96268C19.6258 8.92619 19.6234 8.89945 19.6672 8.93288L18.6968 10.205C18.9658 10.4102 19.2812 10.4899 19.5452 10.5374C19.8169 10.5863 20.1619 10.6202 20.5589 10.6599L20.7181 9.06782ZM21.8251 9.30525C21.6371 9.20828 21.45 9.16313 21.2801 9.13461C21.1181 9.1074 20.9244 9.08845 20.7181 9.06782L20.5589 10.6599C20.7864 10.6826 20.918 10.6962 21.0151 10.7125C21.1044 10.7275 21.1104 10.7369 21.0917 10.7272L21.8251 9.30525ZM22.6739 10.2431C22.5138 9.83812 22.2122 9.5049 21.8251 9.30525L21.0917 10.7272C21.1347 10.7494 21.1682 10.7864 21.186 10.8314L22.6739 10.2431ZM22.8 11.3682C22.8 11.1609 22.8004 10.9664 22.7895 10.8025C22.778 10.6306 22.7517 10.4399 22.6739 10.2431L21.186 10.8314C21.1783 10.8119 21.187 10.8187 21.193 10.9091C21.1996 11.0074 21.2 11.1397 21.2 11.3682H22.8ZM22.8 12.6319V11.3682H21.2V12.6319H22.8ZM22.674 13.7567C22.7517 13.56 22.778 13.3694 22.7895 13.1975C22.8004 13.0336 22.8 12.8391 22.8 12.6319H21.2C21.2 12.8604 21.1996 12.9927 21.193 13.0909C21.187 13.1812 21.1783 13.1881 21.186 13.1685L22.674 13.7567ZM21.825 14.6948C22.2122 14.4952 22.5138 14.1618 22.674 13.7567L21.186 13.1685C21.1682 13.2135 21.1347 13.2506 21.0917 13.2728L21.825 14.6948ZM20.7182 14.9322C20.9245 14.9115 21.1181 14.8926 21.28 14.8654C21.4499 14.8369 21.637 14.7918 21.825 14.6948L21.0917 13.2728C21.1103 13.2631 21.1044 13.2725 21.0151 13.2875C20.918 13.3038 20.7864 13.3174 20.559 13.3401L20.7182 14.9322ZM20.7701 14.9253L20.7701 14.9253L20.5071 13.347L20.5071 13.347L20.7701 14.9253ZM19.6676 15.0671C19.6238 15.1005 19.6263 15.0737 19.8289 15.0373C20.024 15.0022 20.2945 14.9745 20.7182 14.9322L20.559 13.3401C20.1621 13.3798 19.8172 13.4137 19.5456 13.4626C19.2817 13.51 18.9664 13.5897 18.6974 13.7948L19.6676 15.0671ZM19.5907 15.2528C19.5811 15.1816 19.6105 15.1106 19.6676 15.0671L18.6974 13.7948C18.183 14.1871 17.9187 14.8253 18.005 15.4664L19.5907 15.2528ZM20.2381 16.091C19.9685 15.7614 19.7968 15.5506 19.6837 15.3879C19.5662 15.2188 19.5833 15.1982 19.5907 15.2528L18.005 15.4664C18.0502 15.8016 18.2168 16.0809 18.3699 16.301C18.5273 16.5276 18.7473 16.7955 18.9998 17.1042L20.2381 16.091ZM20.8528 17.0412C20.7884 16.8398 20.6881 16.6756 20.5881 16.5354C20.4928 16.4016 20.3694 16.2514 20.2381 16.091L18.9998 17.1042C19.1445 17.281 19.2279 17.3836 19.2851 17.4638C19.3376 17.5375 19.3352 17.5483 19.3288 17.5283L20.8528 17.0412ZM20.7898 18.3051C20.9631 17.9053 20.9855 17.4563 20.8528 17.0412L19.3288 17.5283C19.3435 17.5745 19.341 17.6243 19.3218 17.6688L20.7898 18.3051ZM20.0836 19.1895C20.2301 19.0429 20.3679 18.9057 20.4761 18.7821C20.5895 18.6525 20.7057 18.4991 20.7898 18.3051L19.3218 17.6688C19.3301 17.6495 19.3314 17.6605 19.2719 17.7286C19.207 17.8027 19.1138 17.8965 18.9522 18.0581L20.0836 19.1895ZM19.19 20.083L20.0836 19.1895L18.9522 18.0581L18.0586 18.9517L19.19 20.083ZM18.3053 20.7894C18.4994 20.7053 18.6529 20.5891 18.7825 20.4756C18.9062 20.3675 19.0434 20.2296 19.19 20.083L18.0586 18.9517C17.897 19.1133 17.8032 19.2065 17.7291 19.2714C17.6609 19.331 17.6499 19.3297 17.6692 19.3213L18.3053 20.7894ZM17.0419 20.8524C17.4568 20.985 17.9057 20.9626 18.3053 20.7894L17.6692 19.3213C17.6248 19.3406 17.5749 19.343 17.5288 19.3283L17.0419 20.8524ZM16.0913 20.2376C16.2518 20.3689 16.4021 20.4924 16.5359 20.5877C16.6762 20.6877 16.8404 20.7881 17.0419 20.8524L17.5288 19.3283C17.5488 19.3347 17.538 19.3371 17.4643 19.2846C17.3841 19.2274 17.2814 19.144 17.1045 18.9993L16.0913 20.2376ZM16.0981 20.2431L16.0982 20.2431L17.0977 18.9937L17.0977 18.9937L16.0981 20.2431ZM15.2528 19.5899C15.1982 19.5826 15.2188 19.5654 15.388 19.6829C15.5507 19.7961 15.7616 19.9678 16.0913 20.2376L17.1045 18.9992C16.7957 18.7466 16.5277 18.5266 16.3011 18.3691C16.0808 18.216 15.8015 18.0493 15.4662 18.0042L15.2528 19.5899ZM15.0672 19.6668C15.1107 19.6097 15.1816 19.5804 15.2528 19.5899L15.4662 18.0042C14.8252 17.918 14.1873 18.1822 13.795 18.6964L15.0672 19.6668ZM14.9322 20.7179C14.9746 20.294 15.0022 20.0233 15.0374 19.8282C15.0738 19.6254 15.1006 19.623 15.0672 19.6668L13.7951 18.6964C13.5898 18.9654 13.5102 19.2808 13.4626 19.5449C13.4138 19.8165 13.3798 20.1616 13.3401 20.5587L14.9322 20.7179ZM14.6947 21.8253C14.7917 21.6372 14.8369 21.45 14.8654 21.2801C14.8926 21.118 14.9116 20.9243 14.9322 20.7179L13.3401 20.5587C13.3174 20.7862 13.3038 20.9179 13.2875 21.0151C13.2725 21.1044 13.2631 21.1104 13.2728 21.0917L14.6947 21.8253ZM13.757 22.6738C14.1619 22.5137 14.495 22.2122 14.6947 21.8253L13.2727 21.0917C13.2506 21.1347 13.2136 21.1682 13.1686 21.186L13.757 22.6738ZM12.6316 22.8C12.839 22.8 13.0336 22.8004 13.1976 22.7895C13.3695 22.778 13.5603 22.7517 13.757 22.6738L13.1686 21.186C13.1881 21.1783 13.1813 21.187 13.0909 21.193C12.9926 21.1996 12.8602 21.2 12.6316 21.2V22.8ZM11.3682 22.8H12.6316V21.2H11.3682V22.8ZM10.2431 22.6739C10.4399 22.7517 10.6306 22.778 10.8025 22.7895C10.9664 22.8004 11.1609 22.8 11.3682 22.8V21.2C11.1397 21.2 11.0074 21.1996 10.9091 21.193C10.8188 21.187 10.8119 21.1783 10.8314 21.186L10.2431 22.6739ZM9.30525 21.8251C9.50489 22.2122 9.83812 22.5138 10.2431 22.6739L10.8314 21.186C10.7864 21.1682 10.7494 21.1347 10.7272 21.0917L9.30525 21.8251ZM9.06783 20.7182C9.08845 20.9244 9.1074 21.1181 9.13461 21.2801C9.16313 21.45 9.20828 21.6371 9.30525 21.8251L10.7272 21.0917C10.7369 21.1104 10.7275 21.1044 10.7125 21.0151C10.6962 20.918 10.6826 20.7864 10.6599 20.5589L9.06783 20.7182ZM8.93288 19.6672C8.89945 19.6234 8.92619 19.6258 8.96268 19.8286C8.99778 20.0237 9.02544 20.2943 9.06783 20.7182L10.6599 20.5589C10.6202 20.1619 10.5863 19.8169 10.5374 19.5452C10.4899 19.2812 10.4102 18.9658 10.205 18.6968L8.93288 19.6672ZM8.74721 19.5903C8.81842 19.5807 8.8893 19.6101 8.93288 19.6672L10.205 18.6968C9.81272 18.1826 9.17484 17.9184 8.53394 18.0046L8.74721 19.5903ZM7.90867 20.238C8.23837 19.9683 8.44928 19.7965 8.61205 19.6833C8.7812 19.5658 8.80183 19.583 8.74721 19.5903L8.53393 18.0046C8.19859 18.0497 7.91923 18.2164 7.69895 18.3695C7.47228 18.527 7.2043 18.747 6.89549 18.9997L7.90867 20.238ZM7.93355 20.2168L7.93357 20.2168L6.87058 19.0209L6.87057 19.0209L7.93355 20.2168ZM6.95801 20.8529C7.15952 20.7885 7.32377 20.6881 7.46408 20.5882C7.59789 20.4928 7.74821 20.3693 7.90865 20.238L6.89547 18.9997C6.71859 19.1444 6.61591 19.2279 6.53568 19.2851C6.46195 19.3376 6.45113 19.3352 6.47115 19.3288L6.95801 20.8529ZM5.69467 20.7899C6.0943 20.963 6.54315 20.9854 6.95801 20.8529L6.47115 19.3288C6.42505 19.3435 6.37518 19.341 6.33078 19.3218L5.69467 20.7899ZM4.80992 20.0835C4.95651 20.2301 5.09379 20.3679 5.21745 20.4761C5.34712 20.5895 5.50057 20.7058 5.69466 20.7899L6.33078 19.3218C6.35006 19.3301 6.33905 19.3315 6.27091 19.2719C6.19677 19.207 6.1029 19.1137 5.94129 18.9521L4.80992 20.0835ZM3.91648 19.19L4.80992 20.0835L5.94129 18.9521L5.04785 18.0587L3.91648 19.19ZM3.21008 18.3053C3.29418 18.4994 3.41044 18.6529 3.52386 18.7825C3.63204 18.9062 3.7699 19.0435 3.91648 19.19L5.04785 18.0587C4.88625 17.8971 4.79297 17.8032 4.72811 17.7291C4.66851 17.6609 4.66984 17.6499 4.67819 17.6692L3.21008 18.3053ZM3.14707 17.0419C3.01454 17.4568 3.03692 17.9057 3.21008 18.3053L4.67819 17.6692C4.65895 17.6248 4.65647 17.5749 4.67119 17.5288L3.14707 17.0419ZM3.76194 16.0913C3.63067 16.2517 3.50715 16.4021 3.41181 16.5359C3.31185 16.6762 3.21144 16.8404 3.14707 17.0419L4.67119 17.5288C4.6648 17.5488 4.66238 17.538 4.71491 17.4643C4.77207 17.3841 4.85554 17.2814 5.00027 17.1045L3.76194 16.0913ZM4.40961 15.2528C4.41696 15.1982 4.43415 15.2188 4.3166 15.3879C4.20348 15.5507 4.03169 15.7616 3.76194 16.0913L5.00027 17.1045C5.25293 16.7957 5.47294 16.5277 5.63046 16.3011C5.78355 16.0808 5.95022 15.8014 5.99533 15.4661L4.40961 15.2528ZM4.3327 15.0671C4.38983 15.1107 4.41919 15.1816 4.40961 15.2528L5.99533 15.4661C6.08155 14.8252 5.81731 14.1873 5.30314 13.795L4.3327 15.0671ZM3.28183 14.9322C3.70569 14.9746 3.97629 15.0022 4.17137 15.0373C4.37409 15.0738 4.37652 15.1005 4.3327 15.0671L5.30314 13.795C5.03413 13.5898 4.71875 13.5101 4.45474 13.4626C4.18309 13.4137 3.83804 13.3798 3.44103 13.3401L3.28183 14.9322ZM2.1749 14.6948C2.36289 14.7917 2.55003 14.8369 2.71992 14.8654C2.88194 14.8926 3.07557 14.9115 3.28183 14.9322L3.44104 13.3401C3.21363 13.3174 3.08201 13.3038 2.98486 13.2875C2.89559 13.2725 2.88965 13.2631 2.90832 13.2728L2.1749 14.6948ZM1.32609 13.7568C1.48623 14.1619 1.7878 14.4951 2.1749 14.6948L2.90832 13.2728C2.86531 13.2506 2.8318 13.2136 2.81401 13.1685L1.32609 13.7568ZM1.2 12.6318C1.2 12.8391 1.19959 13.0336 1.21053 13.1975C1.22201 13.3694 1.24831 13.5601 1.32608 13.7568L2.81401 13.1685C2.82173 13.1881 2.81301 13.1812 2.80698 13.0909C2.80041 12.9926 2.8 12.8603 2.8 12.6318H1.2ZM1.2 11.3683V12.6318H2.8V11.3683H1.2ZM1.32615 10.243C1.24834 10.4397 1.22203 10.6305 1.21054 10.8024C1.19959 10.9664 1.2 11.161 1.2 11.3683H2.8C2.8 11.1397 2.80041 11.0074 2.80698 10.9091C2.81302 10.8187 2.82175 10.8119 2.81402 10.8314L1.32615 10.243ZM2.17474 9.30532C1.78777 9.50495 1.48629 9.83809 1.32615 10.243L2.81402 10.8314C2.83181 10.7864 2.86531 10.7494 2.9083 10.7272L2.17474 9.30532ZM3.28195 9.06781C3.07563 9.08845 2.88195 9.1074 2.71989 9.13461C2.54996 9.16315 2.36277 9.20831 2.17474 9.30531L2.9083 10.7272C2.88963 10.7369 2.89557 10.7275 2.98486 10.7125C3.08203 10.6962 3.21369 10.6826 3.44115 10.6599L3.28195 9.06781ZM3.36155 9.06384H3.36155V10.6638H3.36155V9.06384ZM3.36156 9.06384H3.36155V10.6638H3.36156V9.06384ZM4.3331 8.93283C4.37693 8.89939 4.3745 8.92614 4.17173 8.96264C3.9766 8.99776 3.70593 9.02542 3.28195 9.06781L3.44116 10.6599C3.83827 10.6202 4.18342 10.5862 4.45514 10.5373C4.71922 10.4898 5.03468 10.4101 5.30373 10.2048L4.3331 8.93283ZM4.40999 8.7472C4.41956 8.81839 4.39021 8.88925 4.3331 8.93283L5.30373 10.2048C5.81769 9.81259 6.08184 9.17488 5.99574 8.53412L4.40999 8.7472ZM3.76211 7.90841C4.03194 8.23821 4.2038 8.44918 4.31695 8.612C4.43454 8.78121 4.41734 8.80184 4.40999 8.7472L5.99574 8.53412C5.95067 8.19869 5.78396 7.91926 5.63083 7.69891C5.47326 7.47219 5.25318 7.20413 5.00044 6.89523L3.76211 7.90841ZM3.14704 6.95739C3.21141 7.15897 3.31185 7.3233 3.41185 7.46366C3.50721 7.59752 3.63079 7.7479 3.76211 7.90841L5.00044 6.89523C4.85566 6.71827 4.77214 6.61554 4.71496 6.53528C4.66241 6.46151 4.66484 6.45069 4.67123 6.47072L3.14704 6.95739ZM3.21003 5.69447C3.03699 6.09397 3.01462 6.54265 3.14704 6.95739L4.67123 6.47072C4.65652 6.42463 4.659 6.37478 4.67823 6.33039L3.21003 5.69447ZM3.91665 4.8094C3.77001 4.95604 3.6321 5.09337 3.52389 5.21707C3.41042 5.34679 3.29413 5.50029 3.21003 5.69447L4.67823 6.33039C4.66987 6.34968 4.66854 6.33867 4.72816 6.27051C4.79304 6.19634 4.88635 6.10244 5.04802 5.94077L3.91665 4.8094ZM4.80997 3.91608L3.91665 4.8094L5.04802 5.94077L5.94134 5.04745L4.80997 3.91608ZM4.80997 3.91608L4.80997 3.91608L5.94134 5.04745L5.94134 5.04745L4.80997 3.91608ZM5.69471 3.20967C5.50061 3.29377 5.34716 3.41002 5.2175 3.52345C5.09384 3.63163 4.95655 3.7695 4.80997 3.91608L5.94134 5.04745C6.10295 4.88584 6.19682 4.79256 6.27096 4.7277C6.33909 4.6681 6.3501 4.66943 6.33082 4.67779L5.69471 3.20967ZM6.95806 3.14666C6.54319 3.01413 6.09434 3.03652 5.69471 3.20967L6.33082 4.67779C6.37522 4.65855 6.4251 4.65606 6.47119 4.67078L6.95806 3.14666ZM7.90879 3.7616C7.74832 3.6303 7.59798 3.50676 7.46416 3.41142C7.32385 3.31145 7.15958 3.21103 6.95806 3.14666L6.47119 4.67078C6.45117 4.66439 6.46199 4.66196 6.53574 4.71451C6.61599 4.77168 6.71869 4.85518 6.89561 4.99993L7.90879 3.7616ZM8.74722 4.40922C8.80184 4.41658 8.78121 4.43376 8.61207 4.3162C8.44932 4.20309 8.23844 4.03131 7.90879 3.7616L6.89561 4.99993C7.20438 5.25256 7.4723 5.47253 7.69892 5.63004C7.91914 5.7831 8.19842 5.94976 8.53367 5.99491L8.74722 4.40922ZM8.93294 4.33229C8.88936 4.38945 8.81845 4.41882 8.74722 4.40922L8.53367 5.99491C9.17478 6.08125 9.81291 5.81693 10.2052 5.30254L8.93294 4.33229ZM9.06784 3.2817C9.02547 3.70545 8.99782 3.97597 8.96273 4.171C8.92626 4.37367 8.89953 4.37611 8.93294 4.33229L10.2052 5.30254C10.4103 5.03358 10.4899 4.71828 10.5374 4.45434C10.5863 4.18276 10.6202 3.83781 10.6599 3.44091L9.06784 3.2817ZM9.30515 2.17507C9.20823 2.36302 9.16311 2.5501 9.1346 2.71995C9.1074 2.88192 9.08846 3.0755 9.06784 3.2817L10.6599 3.44091C10.6826 3.21356 10.6962 3.08198 10.7125 2.98486C10.7275 2.89561 10.7369 2.88967 10.7272 2.90834L9.30515 2.17507ZM10.2433 1.32602C9.83816 1.48617 9.50482 1.78784 9.30515 2.17507L10.7272 2.90834C10.7494 2.86531 10.7865 2.8318 10.8315 2.814L10.2433 1.32602ZM11.3681 1.2C11.1609 1.2 10.9664 1.19959 10.8025 1.21053C10.6306 1.222 10.44 1.24829 10.2433 1.32602L10.8315 2.814C10.8119 2.82172 10.8188 2.813 10.9091 2.80697C11.0073 2.80041 11.1396 2.8 11.3681 2.8V1.2ZM12.6318 1.2H11.3681V2.8H12.6318V1.2ZM13.7568 1.32609C13.5601 1.24831 13.3694 1.22201 13.1975 1.21053C13.0336 1.19959 12.8391 1.2 12.6318 1.2V2.8C12.8603 2.8 12.9926 2.80041 13.0909 2.80698C13.1812 2.81301 13.1881 2.82174 13.1685 2.81401L13.7568 1.32609ZM14.6948 2.1749C14.4951 1.7878 14.1619 1.48623 13.7568 1.32609L13.1685 2.81401C13.2136 2.8318 13.2506 2.86531 13.2728 2.90832L14.6948 2.1749ZM15.2 12C15.2 13.7673 13.7673 15.2 12 15.2V16.8C14.651 16.8 16.8 14.651 16.8 12H15.2ZM12 8.8C13.7673 8.8 15.2 10.2327 15.2 12H16.8C16.8 9.34903 14.651 7.2 12 7.2V8.8ZM8.8 12C8.8 10.2327 10.2327 8.8 12 8.8V7.2C9.34903 7.2 7.2 9.34903 7.2 12H8.8ZM12 15.2C10.2327 15.2 8.8 13.7673 8.8 12H7.2C7.2 14.651 9.34903 16.8 12 16.8V15.2Z" fill="#696F8C"/>
</svg>
