<svg width="24" height="24" viewBox="0 0 24 24" fill="none" xmlns="http://www.w3.org/2000/svg">
<path d="M3 11C3 7.22876 3 5.34315 4.17157 4.17157C5.34315 3 7.22876 3 11 3H13C16.7712 3 18.6569 3 19.8284 4.17157C21 5.34315 21 7.22876 21 11V13C21 16.7712 21 18.6569 19.8284 19.8284C18.6569 21 16.7712 21 13 21H11C7.22876 21 5.34315 21 4.17157 19.8284C3 18.6569 3 16.7712 3 13V11Z" stroke="#696F8C" stroke-width="1.6"/>
<path fill-rule="evenodd" clip-rule="evenodd" d="M18.9992 13.8677L18.8665 13.735L18.8427 13.7113C18.449 13.3175 18.1181 12.9866 17.8247 12.7393C17.5178 12.4806 17.197 12.2648 16.8088 12.1476C16.2813 11.9885 15.7187 11.9885 15.1912 12.1476C14.803 12.2648 14.4822 12.4806 14.1753 12.7393C13.8819 12.9866 13.551 13.3175 13.1573 13.7112L13.1335 13.735C12.8295 14.039 12.6411 14.2262 12.492 14.3495C12.4151 14.4131 12.3727 14.4387 12.3565 14.4474C12.3182 14.4511 12.2797 14.4437 12.2456 14.4261C12.2338 14.4119 12.2039 14.3724 12.1561 14.2848C12.0635 14.115 11.9581 13.8712 11.7887 13.476L11.7353 13.3514L11.717 13.3087L11.717 13.3087C11.3578 12.4704 11.0626 11.7815 10.7721 11.2654C10.4745 10.7365 10.1192 10.27 9.58019 9.99985C9.11933 9.76881 8.60363 9.6695 8.08992 9.71285C7.48914 9.76355 6.98604 10.0647 6.51324 10.4452C6.08155 10.7927 5.58977 11.2791 5 11.8685V12.9999C5 13.4053 5.00019 13.7808 5.00161 14.1296L5.97557 13.1557C6.66147 12.4698 7.13058 12.0022 7.51645 11.6917C7.89868 11.384 8.09642 11.318 8.22447 11.3072C8.44463 11.2886 8.66564 11.3312 8.86315 11.4302C8.97803 11.4878 9.13711 11.6225 9.37774 12.0501C9.62066 12.4818 9.88258 13.0901 10.2647 13.9817L10.3181 14.1063L10.332 14.1387C10.4831 14.4913 10.6181 14.8064 10.7515 15.051C10.8903 15.3054 11.08 15.587 11.39 15.7789C11.7655 16.0113 12.2134 16.0976 12.6485 16.0213C13.0076 15.9582 13.2883 15.7672 13.5116 15.5825C13.7263 15.405 13.9687 15.1626 14.2399 14.8914L14.2399 14.8913L14.2649 14.8664C14.6886 14.4426 14.9714 14.1608 15.2064 13.9628C15.4337 13.7712 15.5605 13.7075 15.6534 13.6795C15.8794 13.6113 16.1206 13.6113 16.3466 13.6795C16.4395 13.7075 16.5663 13.7712 16.7936 13.9628C17.0286 14.1608 17.3114 14.4426 17.7351 14.8664L18.9592 16.0905C18.989 15.4838 18.9971 14.759 18.9992 13.8677Z" fill="#696F8C"/>
<circle cx="16.5" cy="7.5" r="1.5" fill="#696F8C"/>
</svg>
