<svg width="24" height="24" viewBox="0 0 24 24" fill="none" xmlns="http://www.w3.org/2000/svg">
<circle cx="12" cy="8" r="4" stroke="#696F8C" stroke-width="1.6" stroke-linecap="round"/>
<path fill-rule="evenodd" clip-rule="evenodd" d="M16 15.9385C15.9388 15.9145 15.8773 15.8911 15.8154 15.8682C14.2779 15.2996 12.5609 15.0886 10.8769 15.2549C9.19341 15.4211 7.59409 15.9594 6.28512 16.8203C4.97611 17.6813 3.99699 18.8414 3.51949 20.1777C3.37084 20.5938 3.58779 21.0515 4.00387 21.2002C4.41985 21.3486 4.87772 21.1318 5.02633 20.7158C5.36795 19.76 6.09519 18.8609 7.165 18.1572C8.23508 17.4534 9.58046 16.9912 11.0341 16.8477C11.4874 16.8029 11.9426 16.79 12.3938 16.808C12.7583 16.3177 13.342 16 14 16H16V15.9385Z" fill="#696F8C"/>
<path d="M18 14L18 22" stroke="#696F8C" stroke-width="1.6" stroke-linecap="round"/>
<path d="M22 18L14 18" stroke="#696F8C" stroke-width="1.6" stroke-linecap="round"/>
</svg>
