<svg width="24" height="24" viewBox="0 0 24 24" fill="none" xmlns="http://www.w3.org/2000/svg">
<path d="M3 6.4L3 18C3 19.8856 3 20.8284 3.58579 21.4142C4.17157 22 5.11438 22 7 22L19 22C19.9428 22 20.4142 22 20.7071 21.7071C21 21.4142 21 20.9428 21 20V18.4M3 6.4C3 7.72548 4.07452 8.8 5.4 8.8L19 8.8C19.9428 8.8 20.4142 8.8 20.7071 9.09289C21 9.38579 21 9.85719 21 10.8L21 13.6M3 6.4C3 5.07452 4.07452 4 5.4 4L19.1143 4C19.2871 4 19.3735 4 19.4438 4.02112C19.6047 4.06944 19.7306 4.19531 19.7789 4.3562C19.8 4.42655 19.8 4.51294 19.8 4.68571C19.8 5.72238 19.8 6.24071 19.6733 6.6628C19.3834 7.62813 18.6281 8.38338 17.6628 8.67325C17.2407 8.8 16.7224 8.8 15.6857 8.8H15.6M21 18.4H18.2C17.2572 18.4 16.7858 18.4 16.4929 18.1071C16.2 17.8142 16.2 17.3428 16.2 16.4V15.6C16.2 14.6572 16.2 14.1858 16.4929 13.8929C16.7858 13.6 17.2572 13.6 18.2 13.6H21M21 18.4V13.6" stroke="#696F8C" stroke-width="1.3"/>
</svg>
